# xmcd
#
# Track frame offsets:
#	150
#	18647
#	50710
#	70510
#
# Disc length: 1186 seconds
#
# Revision: 1
# Processed by: cddbd v1.5.1PL0 Copyright (c) Steve Scherf et al.
# Submitted via: CDex 1.50Beta5
#
DISCID=3004a004
DTITLE=郷ひろみ - Goldfinger '99
DYEAR=1900
DGENRE=Pop
TTITLE0=GOLDFINGER'99~Single Version
TTITLE1=Goldfinger'99~escape A Go Go Mix
TTITLE2=GOLDFINGER'99~AKAKAGE's Happy Finger *99
TTITLE3=GOLDFINGER'99~Instrumental
EXTD=
EXTT0=
EXTT1=
EXTT2=
EXTT3=
PLAYORDER=
